<?xml version="1.0" encoding="UTF-8" standalone="no"?>
<!DOCTYPE svg PUBLIC "-//W3C//DTD SVG 1.1//EN"
 "http://www.w3.org/Graphics/SVG/1.1/DTD/svg11.dtd">
<!-- Generated by graphviz version 2.38.0 (20140413.2041)
 -->
<!-- Title: asia Pages: 1 -->
<svg width="338pt" height="260pt"
 viewBox="0.00 0.00 337.79 260.00" xmlns="http://www.w3.org/2000/svg" xmlns:xlink="http://www.w3.org/1999/xlink">
<g id="graph0" class="graph" transform="scale(1 1) rotate(0) translate(4 256)">
<title>asia</title>
<polygon fill="white" stroke="none" points="-4,4 -4,-256 333.79,-256 333.79,4 -4,4"/>
<!-- visit_to_Asia? -->
<g id="node1" class="node"><title>visit_to_Asia?</title>
<ellipse fill="#6b85d1" stroke="black" cx="61.7445" cy="-234" rx="61.99" ry="18"/>
<text text-anchor="middle" x="61.7445" y="-230.3" font-family="Times,serif" font-size="14.00" fill="#ffffff">visit_to_Asia?</text>
</g>
<!-- lung_cancer? -->
<g id="node4" class="node"><title>lung_cancer?</title>
<ellipse fill="#6b85d1" stroke="black" cx="61.7445" cy="-162" rx="57.6901" ry="18"/>
<text text-anchor="middle" x="61.7445" y="-158.3" font-family="Times,serif" font-size="14.00" fill="#ffffff">lung_cancer?</text>
</g>
<!-- visit_to_Asia?&#45;&gt;lung_cancer? -->
<g id="edge2" class="edge"><title>visit_to_Asia?&#45;&gt;lung_cancer?</title>
<path fill="none" stroke="black" d="M61.7445,-215.697C61.7445,-207.983 61.7445,-198.712 61.7445,-190.112"/>
<polygon fill="black" stroke="black" points="65.2446,-190.104 61.7445,-180.104 58.2446,-190.104 65.2446,-190.104"/>
</g>
<!-- smoking? -->
<g id="node2" class="node"><title>smoking?</title>
<ellipse fill="#6b85d1" stroke="black" cx="232.745" cy="-234" rx="45.4919" ry="18"/>
<text text-anchor="middle" x="232.745" y="-230.3" font-family="Times,serif" font-size="14.00" fill="#ffffff">smoking?</text>
</g>
<!-- smoking?&#45;&gt;lung_cancer? -->
<g id="edge1" class="edge"><title>smoking?&#45;&gt;lung_cancer?</title>
<path fill="none" stroke="black" d="M202.173,-220.485C175.041,-209.379 135.111,-193.033 104.759,-180.608"/>
<polygon fill="black" stroke="black" points="105.849,-177.273 95.2689,-176.723 103.198,-183.751 105.849,-177.273"/>
</g>
<!-- bronchitis? -->
<g id="node5" class="node"><title>bronchitis?</title>
<ellipse fill="#6b85d1" stroke="black" cx="279.745" cy="-90" rx="50.0912" ry="18"/>
<text text-anchor="middle" x="279.745" y="-86.3" font-family="Times,serif" font-size="14.00" fill="#ffffff">bronchitis?</text>
</g>
<!-- smoking?&#45;&gt;bronchitis? -->
<g id="edge3" class="edge"><title>smoking?&#45;&gt;bronchitis?</title>
<path fill="none" stroke="black" d="M243.062,-216.363C248.98,-206.185 256.129,-192.717 260.745,-180 268.055,-159.858 272.952,-136.079 275.942,-118.169"/>
<polygon fill="black" stroke="black" points="279.426,-118.541 277.523,-108.119 272.511,-117.453 279.426,-118.541"/>
</g>
<!-- tuberculosis? -->
<g id="node3" class="node"><title>tuberculosis?</title>
<ellipse fill="#6b85d1" stroke="black" cx="194.745" cy="-162" rx="57.3905" ry="18"/>
<text text-anchor="middle" x="194.745" y="-158.3" font-family="Times,serif" font-size="14.00" fill="#ffffff">tuberculosis?</text>
</g>
<!-- tuberculos_or_cancer? -->
<g id="node6" class="node"><title>tuberculos_or_cancer?</title>
<ellipse fill="#6b85d1" stroke="black" cx="121.745" cy="-90" rx="90.1842" ry="18"/>
<text text-anchor="middle" x="121.745" y="-86.3" font-family="Times,serif" font-size="14.00" fill="#ffffff">tuberculos_or_cancer?</text>
</g>
<!-- tuberculosis?&#45;&gt;tuberculos_or_cancer? -->
<g id="edge5" class="edge"><title>tuberculosis?&#45;&gt;tuberculos_or_cancer?</title>
<path fill="none" stroke="black" d="M177.813,-144.765C168.617,-135.946 157.067,-124.871 146.844,-115.068"/>
<polygon fill="black" stroke="black" points="148.986,-112.273 139.346,-107.878 144.141,-117.326 148.986,-112.273"/>
</g>
<!-- lung_cancer?&#45;&gt;tuberculos_or_cancer? -->
<g id="edge4" class="edge"><title>lung_cancer?&#45;&gt;tuberculos_or_cancer?</title>
<path fill="none" stroke="black" d="M75.9637,-144.411C83.3276,-135.82 92.465,-125.159 100.635,-115.627"/>
<polygon fill="black" stroke="black" points="103.36,-117.827 107.211,-107.956 98.0453,-113.271 103.36,-117.827"/>
</g>
<!-- dyspnoea? -->
<g id="node7" class="node"><title>dyspnoea?</title>
<ellipse fill="#6b85d1" stroke="black" cx="266.745" cy="-18" rx="48.1917" ry="18"/>
<text text-anchor="middle" x="266.745" y="-14.3" font-family="Times,serif" font-size="14.00" fill="#ffffff">dyspnoea?</text>
</g>
<!-- bronchitis?&#45;&gt;dyspnoea? -->
<g id="edge6" class="edge"><title>bronchitis?&#45;&gt;dyspnoea?</title>
<path fill="none" stroke="black" d="M276.531,-71.6966C275.098,-63.9827 273.377,-54.7125 271.78,-46.1124"/>
<polygon fill="black" stroke="black" points="275.188,-45.2971 269.921,-36.1043 268.306,-46.5753 275.188,-45.2971"/>
</g>
<!-- tuberculos_or_cancer?&#45;&gt;dyspnoea? -->
<g id="edge7" class="edge"><title>tuberculos_or_cancer?&#45;&gt;dyspnoea?</title>
<path fill="none" stroke="black" d="M154.647,-73.1159C176.826,-62.4091 206.136,-48.2595 229.222,-37.1142"/>
<polygon fill="black" stroke="black" points="230.892,-40.1949 238.375,-32.6954 227.848,-33.891 230.892,-40.1949"/>
</g>
<!-- positive_XraY? -->
<g id="node8" class="node"><title>positive_XraY?</title>
<ellipse fill="#6b85d1" stroke="black" cx="121.745" cy="-18" rx="66.0889" ry="18"/>
<text text-anchor="middle" x="121.745" y="-14.3" font-family="Times,serif" font-size="14.00" fill="#ffffff">positive_XraY?</text>
</g>
<!-- tuberculos_or_cancer?&#45;&gt;positive_XraY? -->
<g id="edge8" class="edge"><title>tuberculos_or_cancer?&#45;&gt;positive_XraY?</title>
<path fill="none" stroke="black" d="M121.745,-71.6966C121.745,-63.9827 121.745,-54.7125 121.745,-46.1124"/>
<polygon fill="black" stroke="black" points="125.245,-46.1043 121.745,-36.1043 118.245,-46.1044 125.245,-46.1043"/>
</g>
</g>
</svg>
