<?xml version="1.0" encoding="UTF-8" standalone="no"?>
<!DOCTYPE svg PUBLIC "-//W3C//DTD SVG 1.1//EN"
 "http://www.w3.org/Graphics/SVG/1.1/DTD/svg11.dtd">
<!-- Generated by graphviz version 2.38.0 (20140413.2041)
 -->
<!-- Title: asia Pages: 1 -->
<svg width="342pt" height="260pt"
 viewBox="0.00 0.00 342.09 260.00" xmlns="http://www.w3.org/2000/svg" xmlns:xlink="http://www.w3.org/1999/xlink">
<g id="graph0" class="graph" transform="scale(1 1) rotate(0) translate(4 256)">
<title>asia</title>
<polygon fill="white" stroke="none" points="-4,4 -4,-256 338.09,-256 338.09,4 -4,4"/>
<!-- visit_to_Asia? -->
<g id="node1" class="node"><title>visit_to_Asia?</title>
<ellipse fill="#6b85d1" stroke="black" cx="62.3945" cy="-234" rx="62.2891" ry="18"/>
<text text-anchor="middle" x="62.3945" y="-230.3" font-family="Times New Roman,serif" font-size="14.00" fill="#ffffff">visit_to_Asia?</text>
</g>
<!-- lung_cancer? -->
<g id="node4" class="node"><title>lung_cancer?</title>
<ellipse fill="#6b85d1" stroke="black" cx="62.3945" cy="-162" rx="58.4896" ry="18"/>
<text text-anchor="middle" x="62.3945" y="-158.3" font-family="Times New Roman,serif" font-size="14.00" fill="#ffffff">lung_cancer?</text>
</g>
<!-- visit_to_Asia?&#45;&gt;lung_cancer? -->
<g id="edge2" class="edge"><title>visit_to_Asia?&#45;&gt;lung_cancer?</title>
<path fill="none" stroke="black" d="M62.3945,-215.697C62.3945,-207.983 62.3945,-198.712 62.3945,-190.112"/>
<polygon fill="black" stroke="black" points="65.8946,-190.104 62.3945,-180.104 58.8946,-190.104 65.8946,-190.104"/>
</g>
<!-- smoking? -->
<g id="node2" class="node"><title>smoking?</title>
<ellipse fill="#6b85d1" stroke="black" cx="235.394" cy="-234" rx="45.4919" ry="18"/>
<text text-anchor="middle" x="235.394" y="-230.3" font-family="Times New Roman,serif" font-size="14.00" fill="#ffffff">smoking?</text>
</g>
<!-- smoking?&#45;&gt;lung_cancer? -->
<g id="edge1" class="edge"><title>smoking?&#45;&gt;lung_cancer?</title>
<path fill="none" stroke="black" d="M204.864,-220.647C177.467,-209.561 136.944,-193.164 106.112,-180.689"/>
<polygon fill="black" stroke="black" points="107.054,-177.295 96.4712,-176.788 104.428,-183.784 107.054,-177.295"/>
</g>
<!-- bronchitis? -->
<g id="node5" class="node"><title>bronchitis?</title>
<ellipse fill="#6b85d1" stroke="black" cx="283.394" cy="-90" rx="50.8918" ry="18"/>
<text text-anchor="middle" x="283.394" y="-86.3" font-family="Times New Roman,serif" font-size="14.00" fill="#ffffff">bronchitis?</text>
</g>
<!-- smoking?&#45;&gt;bronchitis? -->
<g id="edge3" class="edge"><title>smoking?&#45;&gt;bronchitis?</title>
<path fill="none" stroke="black" d="M246.106,-216.411C252.244,-206.25 259.649,-192.783 264.394,-180 271.852,-159.912 276.741,-136.13 279.689,-118.205"/>
<polygon fill="black" stroke="black" points="283.176,-118.561 281.243,-108.144 276.258,-117.493 283.176,-118.561"/>
</g>
<!-- tuberculosis? -->
<g id="node3" class="node"><title>tuberculosis?</title>
<ellipse fill="#6b85d1" stroke="black" cx="197.394" cy="-162" rx="58.4896" ry="18"/>
<text text-anchor="middle" x="197.394" y="-158.3" font-family="Times New Roman,serif" font-size="14.00" fill="#ffffff">tuberculosis?</text>
</g>
<!-- tuberculos_or_cancer? -->
<g id="node6" class="node"><title>tuberculos_or_cancer?</title>
<ellipse fill="#6b85d1" stroke="black" cx="120.394" cy="-90" rx="94.4839" ry="18"/>
<text text-anchor="middle" x="120.394" y="-86.3" font-family="Times New Roman,serif" font-size="14.00" fill="#ffffff">tuberculos_or_cancer?</text>
</g>
<!-- tuberculosis?&#45;&gt;tuberculos_or_cancer? -->
<g id="edge5" class="edge"><title>tuberculosis?&#45;&gt;tuberculos_or_cancer?</title>
<path fill="none" stroke="black" d="M179.536,-144.765C169.74,-135.86 157.414,-124.654 146.553,-114.78"/>
<polygon fill="black" stroke="black" points="148.714,-112.015 138.96,-107.878 144.005,-117.195 148.714,-112.015"/>
</g>
<!-- lung_cancer?&#45;&gt;tuberculos_or_cancer? -->
<g id="edge4" class="edge"><title>lung_cancer?&#45;&gt;tuberculos_or_cancer?</title>
<path fill="none" stroke="black" d="M76.1397,-144.411C83.187,-135.906 91.9145,-125.372 99.7516,-115.914"/>
<polygon fill="black" stroke="black" points="102.66,-117.89 106.345,-107.956 97.2697,-113.423 102.66,-117.89"/>
</g>
<!-- dyspnoea? -->
<g id="node7" class="node"><title>dyspnoea?</title>
<ellipse fill="#6b85d1" stroke="black" cx="269.394" cy="-18" rx="50.0912" ry="18"/>
<text text-anchor="middle" x="269.394" y="-14.3" font-family="Times New Roman,serif" font-size="14.00" fill="#ffffff">dyspnoea?</text>
</g>
<!-- bronchitis?&#45;&gt;dyspnoea? -->
<g id="edge6" class="edge"><title>bronchitis?&#45;&gt;dyspnoea?</title>
<path fill="none" stroke="black" d="M279.934,-71.6966C278.391,-63.9827 276.537,-54.7125 274.817,-46.1124"/>
<polygon fill="black" stroke="black" points="278.209,-45.2237 272.815,-36.1043 271.345,-46.5966 278.209,-45.2237"/>
</g>
<!-- tuberculos_or_cancer?&#45;&gt;dyspnoea? -->
<g id="edge7" class="edge"><title>tuberculos_or_cancer?&#45;&gt;dyspnoea?</title>
<path fill="none" stroke="black" d="M154.205,-73.1159C177.096,-62.3615 207.381,-48.1336 231.153,-36.9658"/>
<polygon fill="black" stroke="black" points="232.68,-40.1154 240.243,-32.6954 229.704,-33.7798 232.68,-40.1154"/>
</g>
<!-- positive_XraY? -->
<g id="node8" class="node"><title>positive_XraY?</title>
<ellipse fill="#6b85d1" stroke="black" cx="120.394" cy="-18" rx="67.6881" ry="18"/>
<text text-anchor="middle" x="120.394" y="-14.3" font-family="Times New Roman,serif" font-size="14.00" fill="#ffffff">positive_XraY?</text>
</g>
<!-- tuberculos_or_cancer?&#45;&gt;positive_XraY? -->
<g id="edge8" class="edge"><title>tuberculos_or_cancer?&#45;&gt;positive_XraY?</title>
<path fill="none" stroke="black" d="M120.394,-71.6966C120.394,-63.9827 120.394,-54.7125 120.394,-46.1124"/>
<polygon fill="black" stroke="black" points="123.895,-46.1043 120.394,-36.1043 116.895,-46.1044 123.895,-46.1043"/>
</g>
</g>
</svg>
